<?xml version="1.0" encoding="UTF-8"?><svg xmlns="http://www.w3.org/2000/svg" xmlns:xlink="http://www.w3.org/1999/xlink" viewBox="0 0 4457.3 2507.23"><defs><style>.cls-1{fill:url(#_Áåçûìÿííûé_ãðàäèåíò_44-3);}.cls-2{fill:url(#_Áåçûìÿííûé_ãðàäèåíò_44-2);}.cls-3{fill:url(#_Áåçûìÿííûé_ãðàäèåíò_34);}.cls-4{fill:url(#_Áåçûìÿííûé_ãðàäèåíò_7);}.cls-5{isolation:isolate;}.cls-6{fill:url(#_Áåçûìÿííûé_ãðàäèåíò_29-4);}.cls-7{fill:url(#_Áåçûìÿííûé_ãðàäèåíò_96-2);}.cls-8{fill:url(#_Áåçûìÿííûé_ãðàäèåíò_22-2);}.cls-9{fill:url(#_Áåçûìÿííûé_ãðàäèåíò_34-2);}.cls-10{fill:url(#_Áåçûìÿííûé_ãðàäèåíò_71);mix-blend-mode:color-dodge;opacity:.63;}.cls-11{fill:url(#_Áåçûìÿííûé_ãðàäèåíò_44-6);}.cls-12{fill:url(#_Áåçûìÿííûé_ãðàäèåíò_29-3);}.cls-13{fill:url(#_Áåçûìÿííûé_ãðàäèåíò_29-5);}.cls-14{fill:#cecdce;opacity:.46;}.cls-15{fill:url(#_Áåçûìÿííûé_ãðàäèåíò_29-2);}.cls-16{fill:url(#_Áåçûìÿííûé_ãðàäèåíò_96-3);}.cls-17{fill:url(#_Áåçûìÿííûé_ãðàäèåíò_44-4);}.cls-18{fill:url(#_Áåçûìÿííûé_ãðàäèåíò_22-3);}.cls-19{fill:url(#_Áåçûìÿííûé_ãðàäèåíò_34-4);}.cls-20{fill:url(#_Áåçûìÿííûé_ãðàäèåíò_96);}.cls-21{fill:url(#_Áåçûìÿííûé_ãðàäèåíò_29);}.cls-22{fill:url(#_Áåçûìÿííûé_ãðàäèåíò_50);opacity:.19;}.cls-23{fill:url(#_Áåçûìÿííûé_ãðàäèåíò_44-5);}.cls-24{fill:url(#_Áåçûìÿííûé_ãðàäèåíò_44);}.cls-25{fill:url(#_Áåçûìÿííûé_ãðàäèåíò_34-3);}.cls-26{fill:url(#_Áåçûìÿííûé_ãðàäèåíò_67);opacity:.25;}.cls-27{fill:url(#_Áåçûìÿííûé_ãðàäèåíò_22);}</style><linearGradient id="_Áåçûìÿííûé_ãðàäèåíò_7" x1="2239.61" y1="2247.22" x2="2405.19" y2="2247.22" gradientTransform="translate(-492.14 1210.19) rotate(-32.16)" gradientUnits="userSpaceOnUse"><stop offset="0" stop-color="#e42320"/><stop offset=".37" stop-color="#b02320"/><stop offset="1" stop-color="#e8521d"/></linearGradient><linearGradient id="_Áåçûìÿííûé_ãðàäèåíò_44" x1="3107.88" y1="1466.36" x2="3148.25" y2="1466.36" gradientUnits="userSpaceOnUse"><stop offset="0" stop-color="#b53418"/><stop offset="1" stop-color="#b21917"/></linearGradient><linearGradient id="_Áåçûìÿííûé_ãðàäèåíò_34" x1="3259.32" y1="1266.56" x2="3408.92" y2="1266.56" gradientUnits="userSpaceOnUse"><stop offset="0" stop-color="#e73f3e"/><stop offset="1" stop-color="#eb683b"/></linearGradient><linearGradient id="_Áåçûìÿííûé_ãðàäèåíò_44-2" x1="3162.69" y1="1266.74" x2="2956.57" y2="1266.74" xlink:href="#_Áåçûìÿííûé_ãðàäèåíò_44"/><linearGradient id="_Áåçûìÿííûé_ãðàäèåíò_29" x1="3120.98" y1="1139.28" x2="3304.19" y2="1139.28" gradientUnits="userSpaceOnUse"><stop offset="0" stop-color="#f08864"/><stop offset="1" stop-color="#ec6969"/></linearGradient><linearGradient id="_Áåçûìÿííûé_ãðàäèåíò_44-3" x1="3138.52" y1="1130.84" x2="3138.52" y2="1261.09" xlink:href="#_Áåçûìÿííûé_ãðàäèåíò_44"/><linearGradient id="_Áåçûìÿííûé_ãðàäèåíò_44-4" x1="2762.49" y1="1342.9" x2="2791.59" y2="1342.9" xlink:href="#_Áåçûìÿííûé_ãðàäèåíò_44"/><linearGradient id="_Áåçûìÿííûé_ãðàäèåíò_22" x1="3127.07" y1="814.37" x2="3083.73" y2="1650.8" gradientUnits="userSpaceOnUse"><stop offset="0" stop-color="#e8521d"/><stop offset="1" stop-color="#e42320"/></linearGradient><linearGradient id="_Áåçûìÿííûé_ãðàäèåíò_34-2" x1="2764.14" y1="1075.25" x2="3115.45" y2="1075.25" xlink:href="#_Áåçûìÿííûé_ãðàäèåíò_34"/><linearGradient id="_Áåçûìÿííûé_ãðàäèåíò_29-2" x1="3078.69" y1="855.35" x2="3277.96" y2="855.35" xlink:href="#_Áåçûìÿííûé_ãðàäèåíò_29"/><linearGradient id="_Áåçûìÿííûé_ãðàäèåíò_34-3" x1="1596.65" y1="1267.36" x2="1710.04" y2="1267.36" xlink:href="#_Áåçûìÿííûé_ãðàäèåíò_34"/><linearGradient id="_Áåçûìÿííûé_ãðàäèåíò_44-5" x1="1268.07" y1="1267.53" x2="1452.35" y2="1267.53" xlink:href="#_Áåçûìÿííûé_ãðàäèåíò_44"/><linearGradient id="_Áåçûìÿííûé_ãðàäèåíò_29-3" x1="1450.98" y1="1138.62" x2="1599.83" y2="1138.62" xlink:href="#_Áåçûìÿííûé_ãðàäèåíò_29"/><linearGradient id="_Áåçûìÿííûé_ãðàäèåíò_34-4" x1="1078.82" y1="1073.88" x2="1402.57" y2="1073.88" xlink:href="#_Áåçûìÿííûé_ãðàäèåíò_34"/><linearGradient id="_Áåçûìÿííûé_ãðàäèåíò_29-4" x1="1399.82" y1="851.43" x2="1566.15" y2="851.43" xlink:href="#_Áåçûìÿííûé_ãðàäèåíò_29"/><linearGradient id="_Áåçûìÿííûé_ãðàäèåíò_22-2" x1="1427" y1="733.98" x2="1383.65" y2="1570.52" xlink:href="#_Áåçûìÿííûé_ãðàäèåíò_22"/><linearGradient id="_Áåçûìÿííûé_ãðàäèåíò_44-6" x1="1922.49" y1="1220.57" x2="2575.19" y2="1220.57" xlink:href="#_Áåçûìÿííûé_ãðàäèåíò_44"/><linearGradient id="_Áåçûìÿííûé_ãðàäèåíò_29-5" x1="2019.22" y1="815.21" x2="2676.29" y2="815.21" xlink:href="#_Áåçûìÿííûé_ãðàäèåíò_29"/><linearGradient id="_Áåçûìÿííûé_ãðàäèåíò_22-3" x1="1760.69" y1="1179.75" x2="2738.33" y2="1179.75" xlink:href="#_Áåçûìÿííûé_ãðàäèåíò_22"/><linearGradient id="_Áåçûìÿííûé_ãðàäèåíò_67" x1="1930.89" y1="1173.78" x2="2575.06" y2="1173.78" gradientUnits="userSpaceOnUse"><stop offset="0" stop-color="#cacaca"/><stop offset="1" stop-color="#cecdce"/></linearGradient><linearGradient id="_Áåçûìÿííûé_ãðàäèåíò_50" x1="1930.89" y1="1168.45" x2="2574.89" y2="1168.45" gradientUnits="userSpaceOnUse"><stop offset="0" stop-color="#f9fcfc"/><stop offset="1" stop-color="#d1e8f9"/></linearGradient><linearGradient id="_Áåçûìÿííûé_ãðàäèåíò_71" x1="2282.49" y1="1208.1" x2="2074.21" y2="956.42" gradientUnits="userSpaceOnUse"><stop offset="0" stop-color="#fff"/><stop offset="1" stop-color="#cecdce"/></linearGradient><linearGradient id="_Áåçûìÿííûé_ãðàäèåíò_96" x1="2392.3" y1="1118.53" x2="2415.51" y2="1078.33" gradientUnits="userSpaceOnUse"><stop offset="0" stop-color="#6b6b6b"/><stop offset=".17" stop-color="#5e615f"/><stop offset=".33" stop-color="#5a5e5b"/><stop offset=".4" stop-color="#606461"/><stop offset=".79" stop-color="#7f7e7f"/><stop offset="1" stop-color="#8b898b"/></linearGradient><linearGradient id="_Áåçûìÿííûé_ãðàäèåíò_96-2" x1="2104.83" y1="1118.53" x2="2128.04" y2="1078.33" xlink:href="#_Áåçûìÿííûé_ãðàäèåíò_96"/><linearGradient id="_Áåçûìÿííûé_ãðàäèåíò_96-3" x1="2140.17" y1="1204.3" x2="2380.17" y2="1204.3" xlink:href="#_Áåçûìÿííûé_ãðàäèåíò_96"/></defs><g class="cls-5"><g id="_Ñëîé_1"><path class="cls-14" d="M597.29,1007.29c84.86-142.09,247.53-221.75,410.09-252.8,162.56-31.05,329.72-21.1,495.12-26.76,370.2-12.65,737.47-105.18,1069.48-269.44,261.66-129.46,516.19-307.06,807.97-316.56,308.21-10.04,611.58,195.46,716.58,485.41,88.13,243.36,41.23,519.55-71.69,752.44-101.03,208.38-258.97,395.63-467.67,496-273.69,131.62-597.08,100.1-892.59,30.12-295.52-69.98-586.41-175.92-889.96-185.23-279.04-8.56-559.49,83.16-835.63,33.79-492.57-88.05-420.28-615.39-341.69-746.96Z"/><path class="cls-4" d="M2898.69,2239.99h0c-40.11,25.22-93.17,11.7-116.31-29.65l-377.7-674.83,73.09-45.96,444.59,632.77c27.24,38.77,16.44,92.45-23.67,117.67Z"/><g class="cls-5"><polygon class="cls-24" points="3145.04 1562.41 3107.88 1510.08 3110.9 1370.31 3148.25 1418.72 3145.04 1562.41"/><polygon class="cls-3" points="3300.99 1288.99 3259.32 1244.18 3364.26 1244.14 3408.92 1288.91 3300.99 1288.99"/><polygon class="cls-2" points="2977.05 1289.24 2944.4 1244.3 3118.26 1244.24 3155.89 1289.1 2977.05 1289.24"/><polygon class="cls-21" points="3158.78 1159.92 3120.98 1118.6 3262.34 1118.69 3304.19 1159.96 3158.78 1159.92"/><polygon class="cls-1" points="3155.89 1289.1 3118.26 1244.24 3120.98 1118.6 3158.78 1159.92 3155.89 1289.1"/><polygon class="cls-17" points="2789.84 1419.39 2762.49 1370.81 2764.14 1266.42 2791.59 1312.05 2789.84 1419.39"/><polygon class="cls-27" points="3277.96 872.25 2977.05 1289.24 3155.89 1289.1 3158.78 1159.92 3304.19 1159.96 3300.99 1288.99 3408.92 1288.91 3405.48 1418.24 3297.78 1418.44 3294.23 1561.95 3145.04 1562.41 3148.25 1418.72 2789.84 1419.39 2791.59 1312.05 3115.45 871.81 3277.96 872.25"/><polygon class="cls-9" points="2791.59 1312.05 2764.14 1266.42 3078.69 838.45 3115.45 871.81 2791.59 1312.05"/><polygon class="cls-15" points="3115.45 871.81 3078.69 838.45 3236.65 838.93 3277.96 872.25 3115.45 871.81"/></g><g class="cls-5"><polygon class="cls-25" points="1599.6 1290.05 1596.65 1244.71 1703.95 1244.66 1710.04 1289.96 1599.6 1290.05"/><polygon class="cls-23" points="1268.07 1290.3 1274.56 1244.83 1452.35 1244.76 1451.08 1290.16 1268.07 1290.3"/><polygon class="cls-12" points="1450.98 1159.48 1452.25 1117.71 1596.86 1117.81 1599.83 1159.53 1450.98 1159.48"/><polygon class="cls-19" points="1078.82 1313.38 1090.71 1267.2 1402.57 834.39 1399.82 868.01 1078.82 1313.38"/><polygon class="cls-6" points="1399.82 868.01 1402.57 834.39 1564.13 834.87 1566.15 868.47 1399.82 868.01"/><polygon class="cls-8" points="1566.15 868.47 1268.07 1290.3 1451.08 1290.16 1450.98 1159.48 1599.83 1159.53 1599.6 1290.05 1710.04 1289.96 1709.57 1420.79 1599.38 1420.99 1599.12 1566.15 1446.44 1566.62 1446.32 1421.28 1079.57 1421.96 1078.82 1313.38 1399.82 868.01 1566.15 868.47"/></g><g class="cls-5"><path class="cls-11" d="M2575.01,1172.52c-.16-4.91-.43-9.8-.81-14.65s-.86-9.68-1.46-14.47c-.59-4.79-1.29-9.56-2.08-14.28-.8-4.73-1.7-9.42-2.7-14.07l-5.59-26c.96,4.45,1.82,8.94,2.58,13.46,.76,4.52,1.43,9.07,1.99,13.66,.57,4.58,1.03,9.2,1.39,13.84,.36,4.64,.62,9.32,.78,14.01,1.42,42.83-5.99,83.9-20.58,121.5-14.57,37.54-36.29,71.6-63.53,100.49-27.21,28.85-59.92,52.54-96.53,69.37-36.57,16.81-77.04,26.78-119.81,28.2-42.73,1.42-83.79-5.83-121.47-20.15-37.68-14.32-72-35.72-101.21-62.6-29.24-26.9-53.38-59.31-70.69-95.64-17.33-36.37-27.81-76.68-29.68-119.34-.98-22.38,.45-44.32,4.07-65.57,3.63-21.26,9.45-41.82,17.23-61.44,7.79-19.63,17.54-38.31,29.04-55.78,11.5-17.49,24.74-33.77,39.48-48.59l-18.76,18.85c-15.42,15.5-29.26,32.52-41.28,50.81-12.01,18.27-22.21,37.8-30.35,58.33-8.13,20.51-14.21,42.01-18,64.23-3.78,22.21-5.27,45.15-4.23,68.55,1.98,44.6,12.96,86.73,31.09,124.75,18.11,37.97,43.37,71.85,73.95,99.98,30.56,28.1,66.45,50.47,105.86,65.45,39.4,14.97,82.35,22.56,127.03,21.08,44.72-1.47,87.04-11.88,125.29-29.44,38.29-17.58,72.51-42.33,100.96-72.48,28.5-30.19,51.22-65.8,66.46-105.04,15.26-39.3,23.02-82.24,21.54-127.02Z"/><path class="cls-13" d="M2665.88,925.79c-20.8-37-46.51-70.88-76.22-100.79-29.74-29.93-63.47-55.87-100.31-76.97-36.84-21.11-76.77-37.36-118.86-47.9-42.08-10.55-86.31-15.38-131.76-13.67-18.16,.68-36.03,2.4-53.57,5.08-17.54,2.68-34.74,6.33-51.55,10.89-16.8,4.56-33.22,10.03-49.19,16.35-15.96,6.32-31.48,13.49-46.5,21.44l-18.71,9.91c15.71-8.33,31.94-15.82,48.64-22.43,16.71-6.61,33.88-12.33,51.46-17.1,17.59-4.77,35.58-8.59,53.93-11.4,18.35-2.81,37.06-4.6,56.06-5.31,47.56-1.79,93.84,3.27,137.89,14.31,44.04,11.04,85.82,28.04,124.38,50.13,38.54,22.08,73.85,49.22,104.96,80.54,31.09,31.29,57.99,66.74,79.75,105.45-3.47-6.17-6.94-12.35-10.41-18.52Z"/><path class="cls-18" d="M2738.1,1166.83c-2.07-67.26-17.77-131.04-44.56-188.77-26.73-57.79-64.57-109.46-110.7-152.45-46.13-42.99-100.5-77.18-160.41-100.05-59.86-22.81-125.21-34.25-193.14-31.67-67.82,2.58-131.94,18.83-189.67,46.02-57.62,27.18-108.9,65.18-151.28,111.31-42.26,46.02-75.67,100.05-97.69,159.29-21.97,59.13-32.56,123.53-29.43,190.34,3.14,66.7,19.73,129.7,46.97,186.47,27.18,56.67,65.02,107.22,110.75,149.2,45.74,41.92,99.37,75.27,158.23,97.64,58.85,22.31,122.97,33.69,189.73,31.56,66.81-2.19,130.03-17.6,187.26-43.72,57.28-26.17,108.51-63.05,151.22-108.06,42.71-45.06,76.9-98.25,99.88-156.88,23.04-58.8,34.86-123.14,32.84-190.23Zm-163.05,9.42c.95,43.44-6.78,85.14-21.58,123.31-15.25,39.23-38,74.83-66.47,105.04-28.47,30.16-62.66,54.87-100.94,72.47-38.28,17.54-80.6,27.97-125.33,29.43-44.67,1.46-87.6-6.11-127.01-21.07-39.4-14.97-75.33-37.33-105.88-65.47-30.6-28.08-55.83-61.99-73.93-99.93-18.16-38.06-29.15-80.15-31.11-124.76-1.96-44.67,5.27-87.66,20.01-127.12,.78-2.02,1.57-4.04,2.35-6.05,8.57-21.58,19.45-42.09,32.34-61.15,.06-.17,.17-.34,.28-.45,9.19-13.56,19.39-26.4,30.49-38.45,28.36-30.66,62.55-55.88,101-73.93,38.51-18.05,81.16-28.81,126.33-30.43,45.23-1.68,88.73,5.94,128.58,21.13,39.91,15.19,76.11,37.94,106.88,66.53,30.71,28.53,55.99,62.94,73.93,101.39,17.66,37.83,28.19,79.53,29.87,123.59,.06,.73,.11,1.46,.11,2.19,.06,1.23,.06,2.41,.06,3.64v.11Z"/></g><g><path class="cls-26" d="M2575.06,1176.13v.11c-4.43,174.14-146.9,313.87-322,313.87s-322.17-144.21-322.17-322.17c0-1.06,0-2.19,.06-3.25v-.28c.62-59.8,17.54-115.74,46.58-163.49,.06-.17,.17-.34,.28-.45,9.19-13.56,19.39-26.4,30.49-38.45,28.36-30.66,62.55-55.88,101-73.93,38.51-18.05,81.16-28.81,126.33-30.43,45.23-1.68,88.73,5.94,128.58,21.13,14.74,5.6,28.98,12.28,42.65,19.84,23.26,12.95,44.84,28.64,64.23,46.69,30.71,28.53,55.99,62.94,73.93,101.39,17.66,37.83,28.19,79.53,29.87,123.59,.06,.73,.11,1.46,.11,2.19,.06,1.23,.06,2.41,.06,3.64Z"/><path class="cls-22" d="M2574.89,1170.3c-6.78,171.9-148.25,309.17-321.83,309.17-140.01,0-259.11-89.23-303.5-213.94-12.11-33.8-18.66-70.23-18.66-108.17,0-33.18,4.99-65.18,14.29-95.28,14.74-37.16,36.32-71.01,63.11-100.05,28.36-30.66,62.55-55.88,101-73.93,38.51-18.05,81.16-28.81,126.33-30.43,45.23-1.68,88.73,5.94,128.58,21.13,39.91,15.19,76.11,37.94,106.88,66.53,30.71,28.53,55.99,62.94,73.93,101.39,17.66,37.83,28.19,79.53,29.87,123.59Z"/><path class="cls-10" d="M2416.44,977.05c0,178.12-144.38,322.56-322.56,322.56-51.9,0-100.89-12.27-144.33-34.08-11.32-31.61-17.77-65.52-18.61-100.83v-.28c.62-59.8,17.54-115.74,46.58-163.49,.06-.17,.17-.34,.28-.45,9.19-13.56,19.39-26.4,30.49-38.45,28.36-30.66,62.55-55.88,101-73.93,38.51-18.05,81.16-28.81,126.33-30.43,45.23-1.68,88.73,5.94,128.58,21.13,14.74,5.6,28.98,12.28,42.65,19.84,6.28,25.05,9.58,51.34,9.58,78.41Z"/></g><g><g><circle class="cls-20" cx="2403.91" cy="1098.43" r="23.21"/><circle class="cls-7" cx="2116.43" cy="1098.43" r="23.21"/></g><path class="cls-16" d="M2367.04,1254.43c-5.3,0-10.29-3.23-12.28-8.48-14.84-39.19-52.98-65.52-94.9-65.52s-78.92,25.16-94.35,64.09c-2.67,6.74-10.3,10.04-17.04,7.37-6.74-2.67-10.04-10.3-7.37-17.04,19.42-49.01,66.04-80.68,118.77-80.68s100.77,33.14,119.46,82.47c2.57,6.78-.85,14.36-7.63,16.93-1.53,.58-3.1,.85-4.65,.86Z"/></g><path class="cls-14" d="M4287.65,1892.98c36.6-39.48,70.32-83.85,84.4-135.82s4.95-112.96-34.25-149.87c-58.99-55.53-158.92-34.73-221.81,16.34-62.89,51.07-102.65,124.71-156.46,185.26-77.37,87.05-185.32,146.37-300.28,165-89.07,14.44-181.37,5.23-269.03,26.62-87.66,21.4-175.35,87.48-178.6,177.66-3.54,98.25,98.37,174.04,196.55,179.07,153.38,7.86,295.32-103.19,429.01-164.43,164.5-75.35,326.25-165.81,450.49-299.85Z"/><path class="cls-14" d="M694.87,1850.23c151.73,59.48,321.87,46.01,482.26,17.03,121.71-21.99,242.9-52.46,366.57-53.85,123.67-1.39,253.49,30.13,342.57,115.93,89.08,85.79,123.56,234.17,55.37,337.35-46.88,70.94-132.7,109.16-217.48,115.72-84.78,6.56-169.26-14.72-249.9-41.7-187.83-62.84-365.34-157.56-558.63-200.78-105.37-23.56-213.53-31.35-320.49-46.08-106.97-14.73-214.61-37.02-310.33-86.98-95.72-49.96-179.22-130.75-213.01-233.3-33.78-102.55-9.41-227,73.84-295.75,100.17-82.71,256.76-58.09,288.57,68.82,35.14,140.21,123.21,249.71,260.66,303.6Z"/><path class="cls-14" d="M1241.48,357.82c-168.96-41.64-340.33-103.55-512.34-77.18-90.01,13.8-176.12,52.16-246.58,109.84-61.46,50.32-112.4,118.59-123.86,197.19-11.45,78.61,24.82,166.87,97.13,199.76,52.32,23.8,114.16,16.14,167.84-4.41,53.68-20.55,101.86-52.94,152.79-79.6,217.22-113.71,473.37-118.74,718.49-113.45,245.12,5.29,497.76,17.21,727.61-68.13,39.11-14.52,78.28-32.51,106.96-62.81,18.21-19.24,67.36-82.9,28.1-110.23-27.82-19.37-118.43,26.05-140.88,30.52-107.14,21.34-215.88,34.77-324.98,40.29-218.23,11.04-438.09-9.51-650.29-61.81Z"/></g></g></svg>